<?xml version="1.0" encoding="utf-8"?>
<!-- Generator: Adobe Illustrator 15.0.0, SVG Export Plug-In  -->
<!DOCTYPE svg PUBLIC "-//W3C//DTD SVG 1.1//EN" "http://www.w3.org/Graphics/SVG/1.1/DTD/svg11.dtd" [
	<!ENTITY ns_flows "http://ns.adobe.com/Flows/1.0/">
]>
<svg version="1.1"
	 xmlns="http://www.w3.org/2000/svg" xmlns:xlink="http://www.w3.org/1999/xlink" xmlns:a="http://ns.adobe.com/AdobeSVGViewerExtensions/3.0/"
	 x="0px" y="0px" width="100px" height="100px" viewBox="-10 -10.48 100 100"
	 overflow="visible" enable-background="new -10 -10.48 100 100" xml:space="preserve">
<defs>
</defs>
<g>
	<path d="M47.2,24.959c0.746,0,2.346,0.64,4.8,1.92c2.026,1.12,3.04,2.16,3.04,3.12c0,0.428-0.56,0.88-1.68,1.36
		c-2.4,1.174-4.641,2.56-6.721,4.16l-3.92,2.96c-0.427,0.268-0.8,0.507-1.12,0.72c0.693,0.427,1.093,1.014,1.2,1.759
		c0.106,1.068,0.187,2.107,0.24,3.121c1.066-0.107,2.133-0.188,3.2-0.24c6.826-0.641,12.053-1.36,15.68-2.16
		c1.546-0.32,2.48-0.48,2.8-0.48c0.32,0,1.761,0.48,4.32,1.44c2.08,1.067,3.12,2.054,3.12,2.96c0,0.854-1.44,1.279-4.32,1.279H55.76
		c-3.308,0-7.467,0.16-12.479,0.48c0.319,4.48,0.479,8.48,0.479,12c0,6.027-0.587,10.267-1.76,12.721
		c-1.067,1.706-2.054,2.56-2.96,2.56c-0.48,0-1.04-0.374-1.68-1.12c-2.668-3.414-5.094-6-7.28-7.76
		c-0.48-0.267-0.72-0.533-0.72-0.801c0-0.212,0.106-0.319,0.32-0.319c0.692,0,1.786,0.427,3.28,1.28
		c2.026,0.64,3.333,0.959,3.92,0.959c0.427,0,0.772-0.292,1.04-0.879c0.427-0.961,0.772-2.507,1.04-4.641
		c0.267-2.452,0.4-5.732,0.4-9.84c0-1.387-0.028-2.666-0.08-3.84c-0.748,0.054-1.468,0.107-2.16,0.16
		c-5.388,0.373-11.254,1.279-17.6,2.72c-1.654,0.427-2.748,0.64-3.28,0.64c-0.908,0-2.32-0.372-4.24-1.119
		c-1.974-0.801-2.96-1.467-2.96-2c0-0.693,0.64-1.094,1.92-1.201c6.826-0.105,11.866-0.451,15.12-1.039
		c4.052-0.533,8.346-1.013,12.88-1.44C38.8,43.493,38.612,42.693,38.4,42c-0.374-1.387-0.96-2.347-1.761-2.88
		c-0.479-0.266-0.72-0.506-0.72-0.72c0-0.586,0.532-0.88,1.6-0.88c0.427,0,1.2,0.24,2.32,0.72c2.24-2.613,4.08-5.066,5.521-7.36
		c0.372-0.586,0.56-0.986,0.56-1.2c0-0.426-0.294-0.64-0.88-0.64c-0.428,0-1.36,0.134-2.8,0.4C39.68,29.919,36,30.773,31.2,32
		c-1.12,0.32-1.84,0.48-2.16,0.48c-0.48,0-1.308-0.292-2.48-0.88c-1.228-0.692-1.84-1.227-1.84-1.6c0-0.426,0.506-0.64,1.52-0.64
		c4.16-0.266,7.706-0.772,10.64-1.52c2.88-0.64,5.732-1.412,8.561-2.32C46.347,25.147,46.933,24.959,47.2,24.959z M35.04,5.919
		c1.12,0,2.532,0.454,4.24,1.36c1.706,1.068,2.826,2.108,3.359,3.12c0.533,1.12,0.801,2.24,0.801,3.36c0,1.173-0.32,2-0.96,2.48
		c5.065-0.64,10.372-1.44,15.92-2.4c1.652-0.48,2.72-0.72,3.199-0.72c0.801,0,2.267,0.907,4.4,2.72
		c2.452,1.974,3.68,3.468,3.68,4.48c0,1.12-1.04,1.76-3.12,1.92c-3.04,0.427-6.693,1.333-10.96,2.72
		c-0.213,0-0.319-0.106-0.319-0.32c2.933-3.84,4.399-6.106,4.399-6.8c0-0.64-0.507-0.96-1.52-0.96
		c-7.84,0.214-18.88,1.708-33.12,4.48c-1.228,0.107-1.974,0.16-2.24,0.16c-0.907,0-1.68-0.106-2.32-0.32
		c-0.16,0.907-0.48,1.947-0.96,3.12c-0.854,1.974-1.654,3.334-2.4,4.08c-0.534,0.428-1.04,0.64-1.52,0.64
		c-0.534,0-1.094-0.346-1.68-1.04c-0.32-0.586-0.48-1.28-0.48-2.08c0-0.746,0.16-1.386,0.48-1.92c1.066-1.333,2.32-4.132,3.76-8.4
		c0.16-0.64,0.4-0.96,0.72-0.96c0.533,0,1.066,0.667,1.6,2c0.16,0.534,0.292,1.014,0.4,1.44h0.88c5.653-0.16,11.867-0.64,18.64-1.44
		c-0.854-0.586-1.84-1.973-2.96-4.16c-1.707-3.36-2.56-5.44-2.56-6.24C34.4,6.08,34.612,5.973,35.04,5.919z"/>
</g>
</svg>
